<svg xmlns="http://www.w3.org/2000/svg" viewBox="0 0 72 72" role="img" aria-labelledby="title">
  <title id="title">JavaScript</title>
  <rect x="5" y="5" width="62" height="62" rx="2" fill="#f7df1e"/>
  <path fill="#111" d="M35 18h9v32.5c0 11-6.5 15-15 15-2.3 0-4.7-.4-6.7-1.2v-8c1.8.8 3.5 1.2 5.3 1.2 4.8 0 7.4-2.2 7.4-7.2V18Zm14.2 34.5c2.4 3.8 5.4 5.3 8.6 5.3 2.6 0 4.2-1.2 4.2-3 0-2.1-1.7-2.8-5.2-4.3l-2.2-1c-5.6-2.4-9.3-5.4-9.3-11.8 0-5.9 4.5-10.4 11.5-10.4 5 0 8.6 1.7 11.2 6.3l-6.1 3.9c-1.4-2.4-2.8-3.4-5.1-3.4s-3.8 1.5-3.8 3.4c0 2.3 1.5 3.3 4.9 4.8l2.2 1c6.6 2.8 10.3 5.7 10.3 12.2 0 7-5.5 10.8-12.8 10.8-7.2 0-11.8-3.4-14.1-8l5.7-5.8Z"/>
</svg>
